<svg xmlns="http://www.w3.org/2000/svg" height="24" viewBox="0 96 960 960" width="24"><path d="M552 966H408q-14 0-24.25-9.25T371.5 933.5l-12-92.5q-2-.5-14.75-7.75T309 813.5L223.5 849q-13 5-26.25.75T177 833.5L105 708q-7-12-4.25-25.75T114.5 660l75-57q-1-6.5-1-12.5V576q0-6 .25-13t1.25-16l-75-56q-11.5-8.5-14.5-22.25T105 443l72-124.5q7-12.5 20.25-16.5t26.25 1l87 36.5q10-8 22.25-15t26.75-13l12-94q2-14 12.25-23.25T408 185h144q14 0 24.25 9.25t12.25 23.25l12 92.5q14 5.5 25.75 12.75T649 339.5l88-36.5q13-5 25.75-.75T783 318.5L855 443q7.5 12 4.5 25.75T845 491l-77.5 58q1 7 1 12.75v29q0 6.25-1.5 12.75l76.5 56.5q11.5 8.5 14.5 22.5t-4.5 26l-72 124.5q-7 12-20.5 16.25t-26.5-.75l-85.5-36q-9.5 7.5-20.75 14T600.5 841l-12 92.5q-2 14-12.25 23.25T552 966Zm-72.5-255q56 0 95.5-39.5t39.5-95.5q0-56-39.5-95.5T479.5 441q-56.5 0-95.75 39.5T344.5 576q0 56 39.25 95.5T479.5 711Z"/></svg>