<svg xmlns="http://www.w3.org/2000/svg" height="24" viewBox="0 96 960 960" width="24"><path d="M480 1014q-17 0-28.5-11.5T440 974v-40q-125-14-214.5-103.5T122 616H82q-17 0-28.5-11.5T42 576q0-17 11.5-28.5T82 536h40q14-125 103.5-214.5T440 218v-40q0-17 11.5-28.5T480 138q17 0 28.5 11.5T520 178v40q125 14 214.5 103.5T838 536h40q17 0 28.5 11.5T918 576q0 17-11.5 28.5T878 616h-40q-14 125-103.5 214.5T520 934v40q0 17-11.5 28.5T480 1014Zm0-158q116 0 198-82t82-198q0-116-82-198t-198-82q-116 0-198 82t-82 198q0 116 82 198t198 82Zm0-120q-66 0-113-47t-47-113q0-66 47-113t113-47q66 0 113 47t47 113q0 66-47 113t-113 47Z"/></svg>