<svg height="24" viewBox="0 96 960 960" width="24" xmlns="http://www.w3.org/2000/svg"><path d="m483 955.999q-79.769 0-149.615-30.27-69.846-30.269-121.846-82.268-51.999-52-82.268-121.846-30.27-69.846-30.27-149.615 0-114.769 62.154-209.422 62.153-94.653 167.152-140.884 10.539-3.846 21.5-2.923t18.653 6.615q6.462 5.077 10.192 14.5 3.731 9.423 3.731 24.038 3.154 81.307 34.5 154.538 31.347 73.231 88.885 130.77 57.539 57.538 131.077 88.885 73.539 31.346 154.847 34.5 15.23 0 23.73 3.115 8.5 3.116 13.577 9.577 5.692 7.692 7.23 19.269 1.538 11.576-2.308 21.499-45.615 104.999-140.884 167.46-95.268 62.462-210.037 62.462zm0-59.999q88 0 163-44t118-121q-86-8-163-43.692-77-35.693-138-96.693t-97-137.807q-36-76.808-43-162.808-77 43-120.5 118.5t-43.5 163.5q0 135 94.5 229.5t229.5 94.5zm185.461-525.386-63.076-28.538q-9.307-3.846-9.307-13.769t9.307-13.769l63.076-28.538 28.539-63.076q3.846-9.308 13.769-9.308 9.922 0 13.768 9.308l28.539 63.076 63.076 28.538q9.308 3.846 9.308 13.769t-9.308 13.769l-63.076 28.538-28.539 63.077q-3.846 9.307-13.768 9.307-9.923 0-13.769-9.307z"/></svg>