<svg clip-rule="evenodd" fill-rule="evenodd" stroke-linejoin="round" stroke-miterlimit="2" viewBox="0 0 277 37" xmlns="http://www.w3.org/2000/svg"><path d="m14.282 16.451c-.119.007-.245.011-.377.011h-3.229c-1.592 0-2.776.356-3.551 1.066s-1.162 1.603-1.162 2.679c0 1.292.409 2.54 1.227 3.745l-5.618 2.066c-.688-1.076-1.237-2.206-1.646-3.389-.409-1.184-.614-2.551-.614-4.1 0-2.024.571-3.821 1.711-5.392 1.141-1.571 2.658-2.658 4.552-3.26 0 0 1.452-.517 4.456-.517h1.356c.028 0 .059.004.093.01h46.53v7.081h-23.742v10.657c0 6.103 3.147 9.155 9.441 9.155 4.959 0 9.751-1.24 14.377-3.719l3.075 6.58c-5.722 3.242-11.73 4.864-18.024 4.864-5.77 0-10.18-1.419-13.232-4.256s-4.578-6.998-4.578-12.481v-10.8zm118.883 24.962c-1.192.763-2.443 1.371-3.755 1.824-1.311.453-2.825.679-4.541.679-2.242 0-4.232-.632-5.973-1.895-1.74-1.264-2.944-2.945-3.612-5.043-4.625 2.146-9.632 3.851-15.02 5.114-5.388 1.264-10.752 1.896-16.093 1.896-6.199 0-10.943-.93-14.233-2.79-3.291-1.859-4.936-4.506-4.936-7.939 0-3.719 2.075-6.58 6.223-8.583s10.014-3.004 17.595-3.004c8.44 0 16.999 1.311 25.677 3.934-.524-3.576-2.384-6.175-5.578-7.796-3.195-1.622-8.035-2.432-14.52-2.432-8.44 0-17.357 1.454-26.75 4.363l-1.931-6.58c4.72-1.479 9.679-2.623 14.877-3.434 5.197-.81 10.347-1.216 15.449-1.216 8.965 0 15.628 1.657 19.991 4.971s6.545 8.071 6.545 14.27v3.576c0 1.764.393 3.075 1.18 3.934.787.858 1.776 1.287 2.968 1.287 1.431 0 2.813-.453 4.149-1.359zm-58.578-8.44c0 1.383.918 2.408 2.753 3.075 1.836.668 4.852 1.002 9.048 1.002 3.958 0 8.524-.453 13.697-1.359 5.174-.906 10.049-2.122 14.627-3.648v-1.502c-8.631-1.621-17.261-2.432-25.892-2.432-4.577 0-8.094.429-10.55 1.288-2.455.858-3.683 2.05-3.683 3.576zm122.807-24.39v16.808h-7.724v-8.511c-4.006.095-8.428 1.073-13.268 2.932-4.84 1.86-9.739 4.578-14.698 8.154v8.011h13.303v7.081h-36.406v-7.081h14.162v-19.526h-14.162v-7.081h23.103v12.517c10.967-8.917 21.457-13.376 31.471-13.376zm78.606 32.83c-1.192.763-2.444 1.371-3.755 1.824s-2.825.679-4.542.679c-2.241 0-4.232-.632-5.972-1.895-1.741-1.264-2.945-2.945-3.612-5.043-4.625 2.146-9.632 3.851-15.02 5.114-5.389 1.264-10.753 1.896-16.093 1.896-6.199 0-10.944-.93-14.234-2.79-3.29-1.859-4.935-4.506-4.935-7.939 0-3.719 2.074-6.58 6.223-8.583 4.148-2.003 10.013-3.004 17.595-3.004 8.44 0 16.999 1.311 25.677 3.934-.524-3.576-2.384-6.175-5.579-7.796-3.195-1.622-8.034-2.432-14.519-2.432-8.44 0-17.357 1.454-26.751 4.363l-1.931-6.58c4.721-1.479 9.68-2.623 14.877-3.434 5.198-.81 10.348-1.216 15.45-1.216 8.964 0 15.628 1.657 19.991 4.971s6.544 8.071 6.544 14.27v3.576c0 1.764.394 3.075 1.181 3.934.786.858 1.776 1.287 2.968 1.287 1.43 0 2.813-.453 4.148-1.359zm-58.579-8.44c0 1.383.918 2.408 2.754 3.075 1.836.668 4.852 1.002 9.048 1.002 3.958 0 8.523-.453 13.697-1.359 5.173-.906 10.049-2.122 14.627-3.648v-1.502c-8.631-1.621-17.262-2.432-25.892-2.432-4.578 0-8.094.429-10.55 1.288-2.456.858-3.684 2.05-3.684 3.576z" transform="translate(.93 -7.617)"/></svg>