<svg clip-rule="evenodd" fill-rule="evenodd" stroke-linejoin="round" stroke-miterlimit="2" viewBox="0 0 561 37" xmlns="http://www.w3.org/2000/svg"><path d="M15.212 8.834a6.426 6.426 0 0 1-.377.011h-3.229c-1.592 0-2.776.356-3.551 1.066s-1.162 1.603-1.162 2.679c0 1.292.409 2.54 1.227 3.745l-5.618 2.066a15.948 15.948 0 0 1-1.646-3.389c-.409-1.184-.614-2.551-.614-4.1 0-2.024.571-3.821 1.711-5.392 1.141-1.571 2.658-2.658 4.552-3.26 0 0 1.452-.517 4.456-.517h1.356c.028 0 .059.004.093.01h46.53v7.081H35.198v10.657c0 6.103 3.147 9.155 9.441 9.155 4.959 0 9.751-1.24 14.377-3.719l3.075 6.58c-5.722 3.242-11.73 4.864-18.024 4.864-5.77 0-10.18-1.419-13.232-4.256s-4.578-6.998-4.578-12.481v-10.8zm120.883 24.962a17.597 17.597 0 0 1-3.755 1.824c-1.311.453-2.825.679-4.541.679-2.242 0-4.232-.632-5.973-1.895-1.74-1.264-2.944-2.945-3.612-5.043-4.625 2.146-9.632 3.851-15.02 5.114-5.388 1.264-10.752 1.896-16.093 1.896-6.199 0-10.943-.93-14.233-2.79-3.291-1.859-4.936-4.506-4.936-7.939 0-3.719 2.075-6.58 6.223-8.583s10.014-3.004 17.595-3.004c8.44 0 16.999 1.311 25.677 3.934-.524-3.576-2.384-6.175-5.578-7.796-3.195-1.622-8.035-2.432-14.52-2.432-8.44 0-17.357 1.454-26.75 4.363l-1.931-6.58c4.72-1.479 9.679-2.623 14.877-3.434A100.2 100.2 0 0 1 98.974.894c8.965 0 15.628 1.657 19.991 4.971s6.545 8.071 6.545 14.27v3.576c0 1.764.393 3.075 1.18 3.934.787.858 1.776 1.287 2.968 1.287 1.431 0 2.813-.453 4.149-1.359zm-58.578-8.44c0 1.383.918 2.408 2.753 3.075 1.836.668 4.852 1.002 9.048 1.002 3.958 0 8.524-.453 13.697-1.359 5.174-.906 10.049-2.122 14.627-3.648v-1.502a139.985 139.985 0 0 0-25.892-2.432c-4.577 0-8.094.429-10.55 1.288-2.455.858-3.683 2.05-3.683 3.576zM200.324.966v16.808H192.6V9.263c-4.006.095-8.428 1.073-13.268 2.932-4.84 1.86-9.739 4.578-14.698 8.154v8.011h13.303v7.081h-36.406V28.36h14.162V8.834h-14.162V1.753h23.103V14.27C175.601 5.353 186.091.894 196.105.894zm76.606 32.83c-1.192.763-2.444 1.371-3.755 1.824s-2.825.679-4.542.679c-2.241 0-4.232-.632-5.972-1.895-1.741-1.264-2.945-2.945-3.612-5.043-4.625 2.146-9.632 3.851-15.02 5.114-5.389 1.264-10.753 1.896-16.093 1.896-6.199 0-10.944-.93-14.234-2.79-3.29-1.859-4.935-4.506-4.935-7.939 0-3.719 2.074-6.58 6.223-8.583 4.148-2.003 10.013-3.004 17.595-3.004 8.44 0 16.999 1.311 25.677 3.934-.524-3.576-2.384-6.175-5.579-7.796-3.195-1.622-8.034-2.432-14.519-2.432-8.44 0-17.357 1.454-26.751 4.363l-1.931-6.58c4.721-1.479 9.68-2.623 14.877-3.434a100.223 100.223 0 0 1 15.45-1.216c8.964 0 15.628 1.657 19.991 4.971s6.544 8.071 6.544 14.27v3.576c0 1.764.394 3.075 1.181 3.934.786.858 1.776 1.287 2.968 1.287 1.43 0 2.813-.453 4.148-1.359zm-58.579-8.44c0 1.383.918 2.408 2.754 3.075 1.836.668 4.852 1.002 9.048 1.002 3.958 0 8.523-.453 13.697-1.359 5.173-.906 10.049-2.122 14.627-3.648v-1.502a139.993 139.993 0 0 0-25.892-2.432c-4.578 0-8.094.429-10.55 1.288-2.456.858-3.684 2.05-3.684 3.576zm194.103 3.119v7.128h-33.768v-7.128h11.232v-7.704c0-3.888-.816-6.912-2.448-9.072s-4.152-3.24-7.56-3.24-6.744 1.032-10.008 3.096-6.384 4.896-9.36 8.496v8.424h11.232v7.128h-31.248v-7.128h11.232v-7.704c0-3.888-.816-6.912-2.448-9.072s-4.128-3.24-7.488-3.24c-3.408 0-6.756 1.044-10.044 3.132s-6.42 4.932-9.396 8.532v8.352h11.16v7.128h-34.416v-7.128h14.256V8.819h-14.256V1.691h23.256v11.016c2.736-3.552 5.88-6.42 9.432-8.604S339.158.827 343.19.827c4.752 0 8.472 1.152 11.16 3.456s4.488 5.448 5.4 9.432c2.736-3.84 5.952-6.948 9.648-9.324S377.078.827 381.35.827c6.144 0 10.62 1.908 13.428 5.724s4.212 8.676 4.212 14.58v7.344zm74.808 5.472c-1.2.768-2.46 1.38-3.78 1.836s-2.844.684-4.572.684c-2.256 0-4.26-.636-6.012-1.908s-2.964-2.964-3.636-5.076c-4.656 2.16-9.696 3.876-15.12 5.148s-10.824 1.908-16.2 1.908c-6.24 0-11.016-.936-14.328-2.808s-4.968-4.536-4.968-7.992c0-3.744 2.088-6.624 6.264-8.64s10.08-3.024 17.712-3.024c8.496 0 17.112 1.32 25.848 3.96-.528-3.6-2.4-6.216-5.616-7.848s-8.088-2.448-14.616-2.448c-8.496 0-17.472 1.464-26.928 4.392l-1.944-6.624c4.752-1.488 9.744-2.64 14.976-3.456S444.758.827 449.894.827c9.024 0 15.732 1.668 20.124 5.004s6.588 8.124 6.588 14.364v3.6c0 1.776.396 3.096 1.188 3.96s1.788 1.296 2.988 1.296c1.44 0 2.832-.456 4.176-1.368zm-58.968-8.496c0 1.392.924 2.424 2.772 3.096s4.884 1.008 9.108 1.008c3.984 0 8.58-.456 13.788-1.368s10.116-2.136 14.724-3.672v-1.512a140.894 140.894 0 0 0-26.064-2.448c-4.608 0-8.148.432-10.62 1.296s-3.708 2.064-3.708 3.6zm132.488 8.496c-1.2.768-2.46 1.38-3.78 1.836s-2.844.684-4.572.684c-2.256 0-4.26-.636-6.012-1.908s-2.964-2.964-3.636-5.076c-4.656 2.16-9.696 3.876-15.12 5.148s-10.824 1.908-16.2 1.908c-6.24 0-11.016-.936-14.328-2.808s-4.968-4.536-4.968-7.992c0-3.744 2.088-6.624 6.264-8.64s10.08-3.024 17.712-3.024c8.496 0 17.112 1.32 25.848 3.96-.528-3.6-2.4-6.216-5.616-7.848s-8.088-2.448-14.616-2.448c-8.496 0-17.472 1.464-26.928 4.392l-1.944-6.624c4.752-1.488 9.744-2.64 14.976-3.456S518.278.827 523.414.827c9.024 0 15.732 1.668 20.124 5.004s6.588 8.124 6.588 14.364v3.6c0 1.776.396 3.096 1.188 3.96s1.788 1.296 2.988 1.296c1.44 0 2.832-.456 4.176-1.368zm-58.968-8.496c0 1.392.924 2.424 2.772 3.096s4.884 1.008 9.108 1.008c3.984 0 8.58-.456 13.788-1.368s10.116-2.136 14.724-3.672v-1.512a140.894 140.894 0 0 0-26.064-2.448c-4.608 0-8.148.432-10.62 1.296s-3.708 2.064-3.708 3.6z" fill="#fff"/></svg>